<?xml version="1.0" ?><svg id="Icon" viewBox="0 0 64 64" xmlns="http://www.w3.org/2000/svg" xmlns:xlink="http://www.w3.org/1999/xlink"><defs><style>.cls-1{fill:url(#linear-gradient);}.cls-2{fill:url(#linear-gradient-2);}.cls-3{fill:url(#linear-gradient-3);}.cls-4{fill:url(#linear-gradient-4);}.cls-5{fill:url(#linear-gradient-5);}.cls-6{fill:url(#linear-gradient-6);}</style><linearGradient gradientUnits="userSpaceOnUse" id="linear-gradient" x1="17.862" x2="17.862" y1="5.485" y2="25.894"><stop offset="0" stop-color="#bdddf4"/><stop offset="1" stop-color="#95c8ec"/></linearGradient><linearGradient id="linear-gradient-2" x1="17.465" x2="17.465" xlink:href="#linear-gradient" y1="38.545" y2="58.332"/><linearGradient gradientUnits="userSpaceOnUse" id="linear-gradient-3" x1="34.96" x2="34.96" y1="28.208" y2="51.468"><stop offset="0" stop-color="#95c8ec"/><stop offset="1" stop-color="#70b2e2"/></linearGradient><linearGradient gradientUnits="userSpaceOnUse" id="linear-gradient-4" x1="39.801" x2="42.197" y1="19.259" y2="21.655"><stop offset="0" stop-color="#70b2e2"/><stop offset="1" stop-color="#57a0d7"/></linearGradient><linearGradient id="linear-gradient-5" x1="36.96" x2="36.96" xlink:href="#linear-gradient-4" y1="48.97" y2="54.062"/><linearGradient id="linear-gradient-6" x1="47.96" x2="50.705" xlink:href="#linear-gradient-4" y1="12.851" y2="10.105"/></defs><path class="cls-1" d="M21.248,24.241H7.4a2,2,0,0,1-2-2h0a2,2,0,0,1,2-2h13.95A4.913,4.913,0,0,0,26.3,15.947,4.776,4.776,0,0,0,21.557,10.7h-2.4a2,2,0,0,1-2-2h0a2,2,0,0,1,2-2h2.4a8.78,8.78,0,0,1,8.75,9.371A8.978,8.978,0,0,1,21.248,24.241Z"/><path class="cls-2" d="M20.851,39.759H7a2,2,0,0,0-2,2H5a2,2,0,0,0,2,2H20.95a4.914,4.914,0,0,1,4.958,4.294A4.776,4.776,0,0,1,21.16,53.3h-2.4a2,2,0,0,0-2,2h0a2,2,0,0,0,2,2h2.4a8.781,8.781,0,0,0,8.751-9.371A8.978,8.978,0,0,0,20.851,39.759Z"/><path class="cls-3" d="M49.515,49.817a9.551,9.551,0,0,1-9.431-8.349,2,2,0,0,1,1.995-2.243h0a2.026,2.026,0,0,1,1.982,1.751A5.489,5.489,0,0,0,55,40.333V39.186A5.485,5.485,0,0,0,49.515,33.7H12.921a2,2,0,0,1-2-2h0a2,2,0,0,1,2-2H49.515A9.486,9.486,0,0,1,59,39.186v1.147A9.5,9.5,0,0,1,49.515,49.817Z"/><circle class="cls-4" cx="41.634" cy="21.092" r="2"/><circle class="cls-5" cx="36.96" cy="51.817" r="2"/><circle class="cls-6" cx="49.543" cy="11.267" r="2"/></svg>